<?xml version="1.0" encoding="UTF-8" standalone="no"?>
<!-- Created with Inkscape (http://www.inkscape.org/) -->

<svg
   xmlns:dc="http://purl.org/dc/elements/1.1/"
   xmlns:cc="http://creativecommons.org/ns#"
   xmlns:rdf="http://www.w3.org/1999/02/22-rdf-syntax-ns#"
   xmlns:svg="http://www.w3.org/2000/svg"
   xmlns="http://www.w3.org/2000/svg"
   xmlns:sodipodi="http://sodipodi.sourceforge.net/DTD/sodipodi-0.dtd"
   xmlns:inkscape="http://www.inkscape.org/namespaces/inkscape"
   width="297mm"
   height="210mm"
   viewBox="0 0 297 210"
   version="1.1"
   id="svg987"
   inkscape:version="0.92.3 (2405546, 2018-03-11)"
   sodipodi:docname="prettypicture_conceptart.svg">
  <defs
     id="defs981" />
  <sodipodi:namedview
     id="base"
     pagecolor="#ffffff"
     bordercolor="#666666"
     borderopacity="1.0"
     inkscape:pageopacity="0.0"
     inkscape:pageshadow="2"
     inkscape:zoom="0.98994949"
     inkscape:cx="523.81501"
     inkscape:cy="275.9427"
     inkscape:document-units="mm"
     inkscape:current-layer="layer1"
     showgrid="false"
     inkscape:window-width="1600"
     inkscape:window-height="816"
     inkscape:window-x="0"
     inkscape:window-y="28"
     inkscape:window-maximized="1">
    <inkscape:grid
       type="xygrid"
       id="grid993" />
  </sodipodi:namedview>
  <metadata
     id="metadata984">
    <rdf:RDF>
      <cc:Work
         rdf:about="">
        <dc:format>image/svg+xml</dc:format>
        <dc:type
           rdf:resource="http://purl.org/dc/dcmitype/StillImage" />
        <dc:title></dc:title>
      </cc:Work>
    </rdf:RDF>
  </metadata>
  <g
     inkscape:label="Layer 1"
     inkscape:groupmode="layer"
     id="layer1"
     transform="translate(0,-87)">
    <rect
       style="fill:#554400;stroke-width:1.14132619;stroke-miterlimit:4;stroke-dasharray:none"
       id="rect991"
       width="57.074402"
       height="99.407738"
       x="0.37797573"
       y="197.59225" />
    <path
       sodipodi:type="star"
       style="fill:#554400;stroke-width:1.06500006;stroke-miterlimit:4;stroke-dasharray:none"
       id="path4732"
       sodipodi:sides="3"
       sodipodi:cx="61.502285"
       sodipodi:cy="231.57304"
       sodipodi:r1="69.934792"
       sodipodi:r2="34.967396"
       sodipodi:arg1="1.5545815"
       sodipodi:arg2="2.6017791"
       inkscape:flatsided="true"
       inkscape:rounded="0"
       inkscape:randomized="0"
       d="M 62.636216,301.49864 0.37797524,197.59226 121.49266,195.62823 Z"
       inkscape:transform-center-x="0.5864296"
       inkscape:transform-center-y="18.628177"
       transform="matrix(1.0343289,0,0,1.0963948,-0.01297549,-18.857545)" />
    <rect
       style="fill:#554400;stroke-width:1.17116988;stroke-miterlimit:4;stroke-dasharray:none"
       id="rect991-6"
       width="60.098213"
       height="99.407738"
       x="237.09892"
       y="197.45888" />
    <path
       sodipodi:type="star"
       style="fill:#554400;stroke-width:1.06500006;stroke-miterlimit:4;stroke-dasharray:none"
       id="path4732-7"
       sodipodi:sides="3"
       sodipodi:cx="61.502285"
       sodipodi:cy="231.57304"
       sodipodi:r1="69.934792"
       sodipodi:r2="34.967396"
       sodipodi:arg1="1.5545815"
       sodipodi:arg2="2.6017791"
       inkscape:flatsided="true"
       inkscape:rounded="0"
       inkscape:randomized="0"
       d="M 62.636216,301.49864 0.37797524,197.59226 121.49266,195.62823 Z"
       inkscape:transform-center-x="-1.3908205"
       inkscape:transform-center-y="18.078995"
       transform="matrix(1.0329531,0.05333046,-0.0565306,1.0949365,182.7599,-23.220874)" />
    <path
       sodipodi:type="star"
       style="fill:#483737;stroke-width:1.06500006;stroke-miterlimit:4;stroke-dasharray:none"
       id="path4762"
       sodipodi:sides="3"
       sodipodi:cx="97.895844"
       sodipodi:cy="180.63342"
       sodipodi:r1="33.884212"
       sodipodi:r2="16.951082"
       sodipodi:arg1="-0.53761998"
       sodipodi:arg2="0.50957757"
       inkscape:flatsided="true"
       inkscape:rounded="0"
       inkscape:randomized="0"
       d="M 127.00001,163.28155 98.370926,214.5143 68.316598,164.10442 Z"
       inkscape:transform-center-x="0.25270998"
       inkscape:transform-center-y="8.5999399"
       transform="matrix(1,0,0,1.0416914,-9.3544297,6.7882788)" />
    <path
       sodipodi:type="star"
       style="fill:#483737;stroke-width:1.06500006;stroke-miterlimit:4;stroke-dasharray:none"
       id="path4764"
       sodipodi:sides="3"
       sodipodi:cx="152.32442"
       sodipodi:cy="106.87798"
       sodipodi:r1="28.709576"
       sodipodi:r2="15.143832"
       sodipodi:arg1="-2.6147323"
       sodipodi:arg2="-1.5675348"
       inkscape:flatsided="true"
       inkscape:rounded="0"
       inkscape:randomized="0"
       d="m 127.50815,92.442178 49.72618,0.162187 -25.00355,42.983045 z"
       inkscape:transform-center-x="0.21316291"
       inkscape:transform-center-y="18.252159"
       transform="matrix(0.920735,0,0,2.476367,0.24435709,-52.037033)" />
    <path
       sodipodi:type="star"
       style="fill:#483737;stroke-width:1.06500006;stroke-miterlimit:4;stroke-dasharray:none"
       id="path4762-5"
       sodipodi:sides="3"
       sodipodi:cx="202.39423"
       sodipodi:cy="180.15965"
       sodipodi:r1="33.902168"
       sodipodi:r2="16.951082"
       sodipodi:arg1="-0.53850745"
       sodipodi:arg2="0.5086901"
       inkscape:flatsided="true"
       inkscape:rounded="0"
       inkscape:randomized="0"
       d="m 231.49839,162.77275 -28.59875,51.2853 -30.115,-50.40989 z"
       inkscape:transform-center-x="0.25678176"
       inkscape:transform-center-y="8.3165985"
       transform="matrix(1.016094,0,0,1.0073701,-12.135233,12.4311)" />
    <rect
       style="fill:#483737;stroke-width:0.58079267;stroke-miterlimit:4;stroke-dasharray:none"
       id="rect4800"
       width="163.21213"
       height="11.29357"
       x="58.931828"
       y="166.45912" />
    <path
       sodipodi:type="star"
       style="fill:#483737;stroke-width:1.06500006;stroke-miterlimit:4;stroke-dasharray:none"
       id="path4802"
       sodipodi:sides="3"
       sodipodi:cx="55.373508"
       sodipodi:cy="158.47173"
       sodipodi:r1="6.3365903"
       sodipodi:r2="10.446188"
       sodipodi:arg1="-2.6169885"
       sodipodi:arg2="-1.5697909"
       inkscape:flatsided="true"
       inkscape:rounded="0"
       inkscape:randomized="0"
       d="m 49.889048,155.29791 10.975291,0.011 -5.497201,9.49936 z"
       inkscape:transform-center-x="7.4264767"
       inkscape:transform-center-y="1.2381097"
       transform="matrix(1.7282948,0,0,1.1911298,-36.758907,-18.555413)" />
    <path
       sodipodi:type="star"
       style="fill:#483737;stroke-width:1.06500006;stroke-miterlimit:4;stroke-dasharray:none"
       id="path4802-3"
       sodipodi:sides="3"
       sodipodi:cx="55.373508"
       sodipodi:cy="158.47173"
       sodipodi:r1="6.3365903"
       sodipodi:r2="10.446188"
       sodipodi:arg1="-2.6169885"
       sodipodi:arg2="-1.5697909"
       inkscape:flatsided="true"
       inkscape:rounded="0"
       inkscape:randomized="0"
       d="m 49.889048,155.29791 10.975291,0.011 -5.497201,9.49936 z"
       inkscape:transform-center-x="7.4264767"
       inkscape:transform-center-y="1.2381097"
       transform="matrix(1.7282948,0,0,1.1911298,126.45322,-18.555413)" />
    <path
       style="fill:#483737;stroke:#483737;stroke-width:1.06500006;stroke-miterlimit:4;stroke-dasharray:none"
       id="path5384"
       d="m 66.244875,178.33909 c -0.440754,-0.034 -0.870347,-0.15807 -1.30143,-0.25212 -0.450141,-0.11044 -0.911291,-0.16474 -1.369658,-0.2286 -0.416184,-0.0438 -0.829289,-0.0752 -1.235853,-0.17849 -0.270613,-0.091 -0.545931,-0.14763 -0.829395,-0.17481 -0.264115,-0.0175 -0.528949,-0.0182 -0.793527,-0.0185 -0.0065,0.002 -0.02588,0.005 -0.01939,0.007 0.111122,0.0389 0.204917,-0.12059 0.289242,-0.20277 0.03745,-0.0365 0.07287,-0.28788 0.0245,-0.002 -0.07169,0.25063 -0.248536,0.40791 -0.451781,0.55488 -0.178609,0.1227 -0.384778,0.1777 -0.596813,0.2038 -0.664038,0.0742 -0.769011,-0.86487 -0.104973,-0.9391 v 0 c 0.05067,-0.004 0.102547,-0.011 0.149159,-0.0312 0.07336,-0.0527 0.119549,-0.11154 0.08109,0.0106 0.0031,0.083 0.02334,-0.19143 0.06459,-0.2406 0.195905,-0.23347 0.300077,-0.28781 0.565494,-0.30549 0.29505,2.6e-4 0.590436,0.001 0.884854,0.023 0.332012,0.0333 0.657481,0.0951 0.974804,0.2007 0.36962,0.0994 0.750298,0.10724 1.128453,0.15712 0.482256,0.0673 0.96719,0.12546 1.440866,0.24132 0.365458,0.0799 0.729596,0.17908 1.099777,0.23035 0.668174,0 0.668174,0.94494 0,0.94494 z"
       inkscape:connector-curvature="0" />
  </g>
</svg>
